<mxfile host="app.diagrams.net" modified="2024-02-27T22:20:44.117Z" agent="Mozilla/5.0 (Windows NT 10.0; Win64; x64; rv:123.0) Gecko/20100101 Firefox/123.0" etag="ocowTqUyHqkMalMLEntr" version="23.1.6" type="device">
  <diagram name="Page-1" id="TmDt9XGM6VzQtZlpyaEq">
    <mxGraphModel dx="874" dy="1153" grid="1" gridSize="10" guides="1" tooltips="1" connect="1" arrows="1" fold="1" page="1" pageScale="1" pageWidth="827" pageHeight="1169" math="0" shadow="0">
      <root>
        <mxCell id="0" />
        <mxCell id="1" parent="0" />
        <mxCell id="0ws95KaB-2t9atwoKgnw-3" value="Font:&lt;br&gt;&lt;span style=&quot;white-space: pre;&quot;&gt;&#x9;&lt;/span&gt;- Lemon&lt;br&gt;&lt;span style=&quot;white-space: pre;&quot;&gt;&#x9;&lt;/span&gt;- Roboto" style="rounded=0;whiteSpace=wrap;html=1;align=left;verticalAlign=top;fontStyle=0" parent="1" vertex="1">
          <mxGeometry x="320" y="70" width="100" height="70" as="geometry" />
        </mxCell>
        <mxCell id="0ws95KaB-2t9atwoKgnw-4" value="Colours:&lt;span style=&quot;&quot;&gt; &lt;br&gt;#39A7FF&lt;/span&gt;&lt;br&gt;#FFC938&lt;br&gt;#E0F4FF" style="rounded=0;whiteSpace=wrap;html=1;align=left;verticalAlign=top;fontStyle=0" parent="1" vertex="1">
          <mxGeometry x="550" y="70" width="100" height="70" as="geometry" />
        </mxCell>
        <mxCell id="0ws95KaB-2t9atwoKgnw-5" value="" style="group" parent="1" vertex="1" connectable="0">
          <mxGeometry x="100" y="70" width="100" height="70" as="geometry" />
        </mxCell>
        <mxCell id="0ws95KaB-2t9atwoKgnw-1" value="Index" style="rounded=0;whiteSpace=wrap;html=1;align=center;verticalAlign=middle;" parent="0ws95KaB-2t9atwoKgnw-5" vertex="1">
          <mxGeometry width="100" height="70" as="geometry" />
        </mxCell>
        <mxCell id="0ws95KaB-2t9atwoKgnw-2" value="Abbington Farm" style="rounded=0;whiteSpace=wrap;html=1;strokeColor=none;fillColor=none;" parent="0ws95KaB-2t9atwoKgnw-5" vertex="1">
          <mxGeometry x="5" width="90" height="17.5" as="geometry" />
        </mxCell>
        <mxCell id="0ws95KaB-2t9atwoKgnw-6" value="" style="rounded=0;whiteSpace=wrap;html=1;" parent="1" vertex="1">
          <mxGeometry x="100" y="160" width="550" height="490" as="geometry" />
        </mxCell>
        <mxCell id="0ws95KaB-2t9atwoKgnw-23" value="" style="rounded=0;whiteSpace=wrap;html=1;strokeColor=#000000;fillColor=#E0F4FF;align=right;" parent="1" vertex="1">
          <mxGeometry x="100" y="220" width="550" height="680" as="geometry" />
        </mxCell>
        <mxCell id="7_Bna40PHZVwmUt5-Mxg-18" value="" style="rounded=0;whiteSpace=wrap;html=1;fillColor=#39A7FF;strokeColor=none;" vertex="1" parent="1">
          <mxGeometry x="100" y="490" width="550" height="370" as="geometry" />
        </mxCell>
        <mxCell id="0ws95KaB-2t9atwoKgnw-9" value="&lt;div align=&quot;left&quot; style=&quot;font-size: 16px;&quot;&gt;&lt;font color=&quot;#39a7ff&quot; style=&quot;font-size: 16px;&quot;&gt;&lt;span style=&quot;white-space: pre;&quot;&gt;&#x9;&lt;/span&gt;&lt;span style=&quot;white-space: pre;&quot;&gt;&#x9;&lt;/span&gt;&lt;/font&gt;&lt;font color=&quot;#ffffff&quot;&gt;Home&lt;/font&gt;&lt;font color=&quot;#ff9038&quot; style=&quot;font-size: 16px;&quot;&gt; &lt;span style=&quot;white-space: pre;&quot;&gt;&#x9;&lt;/span&gt;&lt;/font&gt;&lt;font color=&quot;#39a7ff&quot;&gt;SHOP&lt;/font&gt;&lt;font color=&quot;#39a7ff&quot; style=&quot;font-size: 16px;&quot;&gt; &lt;span style=&quot;white-space: pre;&quot;&gt;&#x9;FUN&lt;span style=&quot;white-space: pre;&quot;&gt;&#x9;&lt;/span&gt;&lt;span style=&quot;white-space: pre;&quot;&gt;CONTACT&lt;/span&gt;&lt;/span&gt;&lt;br style=&quot;font-size: 16px;&quot;&gt;&lt;/font&gt;&lt;/div&gt;" style="rounded=0;whiteSpace=wrap;html=1;fillColor=#FFC938;fontSize=16;fontColor=#416D19;" parent="1" vertex="1">
          <mxGeometry x="100" y="160" width="550" height="60" as="geometry" />
        </mxCell>
        <mxCell id="0ws95KaB-2t9atwoKgnw-10" value="Logo" style="rounded=0;whiteSpace=wrap;html=1;strokeColor=none;fillColor=none;" parent="1" vertex="1">
          <mxGeometry x="100" y="160" width="120" height="60" as="geometry" />
        </mxCell>
        <mxCell id="0ws95KaB-2t9atwoKgnw-15" value="" style="endArrow=none;dashed=1;html=1;rounded=0;" parent="1" edge="1">
          <mxGeometry width="50" height="50" relative="1" as="geometry">
            <mxPoint x="50" y="480" as="sourcePoint" />
            <mxPoint x="690" y="480" as="targetPoint" />
          </mxGeometry>
        </mxCell>
        <mxCell id="0ws95KaB-2t9atwoKgnw-16" value="fold" style="rounded=0;whiteSpace=wrap;html=1;strokeColor=none;fillColor=none;" parent="1" vertex="1">
          <mxGeometry x="30" y="450" width="60" height="30" as="geometry" />
        </mxCell>
        <mxCell id="7_Bna40PHZVwmUt5-Mxg-17" value="#E0F4FF" style="rounded=0;whiteSpace=wrap;html=1;fillColor=#E0F4FF;strokeColor=none;" vertex="1" parent="1">
          <mxGeometry x="590" y="230" width="60" height="250" as="geometry" />
        </mxCell>
        <mxCell id="g-5z9y8ouBXw4wv0D8xl-6" value="" style="group" parent="1" vertex="1" connectable="0">
          <mxGeometry x="160" y="230" width="430" height="250" as="geometry" />
        </mxCell>
        <mxCell id="0ws95KaB-2t9atwoKgnw-11" value="" style="rounded=0;whiteSpace=wrap;html=1;" parent="g-5z9y8ouBXw4wv0D8xl-6" vertex="1">
          <mxGeometry width="430" height="250" as="geometry" />
        </mxCell>
        <mxCell id="0ws95KaB-2t9atwoKgnw-12" value="" style="endArrow=none;html=1;rounded=0;entryX=1;entryY=1;entryDx=0;entryDy=0;exitX=0;exitY=0;exitDx=0;exitDy=0;" parent="g-5z9y8ouBXw4wv0D8xl-6" source="0ws95KaB-2t9atwoKgnw-11" target="0ws95KaB-2t9atwoKgnw-11" edge="1">
          <mxGeometry width="50" height="50" relative="1" as="geometry">
            <mxPoint x="200" y="380" as="sourcePoint" />
            <mxPoint x="250" y="330" as="targetPoint" />
          </mxGeometry>
        </mxCell>
        <mxCell id="0ws95KaB-2t9atwoKgnw-14" value="" style="endArrow=none;html=1;rounded=0;entryX=1;entryY=0;entryDx=0;entryDy=0;exitX=0;exitY=1;exitDx=0;exitDy=0;" parent="g-5z9y8ouBXw4wv0D8xl-6" source="0ws95KaB-2t9atwoKgnw-11" target="0ws95KaB-2t9atwoKgnw-11" edge="1">
          <mxGeometry width="50" height="50" relative="1" as="geometry">
            <mxPoint x="70" as="sourcePoint" />
            <mxPoint x="390" y="340.00000000000006" as="targetPoint" />
          </mxGeometry>
        </mxCell>
        <mxCell id="0ws95KaB-2t9atwoKgnw-19" value="&lt;font color=&quot;#ecf9ff&quot; size=&quot;1&quot;&gt;&lt;b style=&quot;font-size: 14px;&quot;&gt;&lt;br&gt;&lt;/b&gt;&lt;/font&gt;&lt;font color=&quot;#ecf9ff&quot; size=&quot;1&quot;&gt;&lt;b style=&quot;font-size: 14px;&quot;&gt;Heading&lt;/b&gt;&lt;/font&gt;&lt;font color=&quot;#ecf9ff&quot; size=&quot;1&quot;&gt;&lt;b style=&quot;font-size: 14px;&quot;&gt;&lt;br&gt;&lt;br&gt;&lt;/b&gt;&lt;/font&gt;&lt;font color=&quot;#ecf9ff&quot;&gt;Lorem ipsum dolor sit amet, consectetur adipiscing elit. Pellentesque &lt;br&gt;dignissim tellus in tellus pharetra tempus. Nulla pretium quam eget &lt;br&gt;tincidunt congue. Nullam vulputate leo vitae mollis euismod. Maecenas et&lt;br&gt; sapien et neque dignissim consectetur at et turpis. &lt;br&gt;&lt;/font&gt;" style="rounded=0;whiteSpace=wrap;html=1;verticalAlign=top;align=left;fillColor=#39A7FF;strokeColor=none;" parent="1" vertex="1">
          <mxGeometry x="160" y="230" width="220" height="250" as="geometry" />
        </mxCell>
        <mxCell id="0ws95KaB-2t9atwoKgnw-25" value="#FFC938" style="rounded=0;whiteSpace=wrap;html=1;fillColor=#FFC938;strokeColor=none;" parent="1" vertex="1">
          <mxGeometry x="590" y="165" width="60" height="50" as="geometry" />
        </mxCell>
        <mxCell id="g-5z9y8ouBXw4wv0D8xl-3" value="&lt;h3&gt;&lt;font color=&quot;#ffffff&quot;&gt;Contact&lt;/font&gt;&lt;/h3&gt;&lt;p&gt;&lt;font color=&quot;#ffffff&quot;&gt;&lt;strong&gt;Address&lt;br&gt;&lt;/strong&gt;Abbington Farm, Abington, Biggar ML12 6RH&lt;/font&gt;&lt;/p&gt;&lt;p&gt;&lt;font color=&quot;#ffffff&quot;&gt;&lt;strong&gt;Tel:&lt;/strong&gt; 01864 502501&lt;/font&gt;&lt;/p&gt;&lt;p&gt;&lt;font color=&quot;#ffffff&quot;&gt;&lt;strong&gt;Opening Times&lt;br&gt;&lt;/strong&gt;Monday to Saturday – 8.00am to 5.00pm&lt;br&gt;Sunday – 9.00am to 4.30pm&lt;/font&gt;&lt;/p&gt;&lt;br&gt;&lt;div&gt;&lt;br&gt;&lt;/div&gt;" style="rounded=0;whiteSpace=wrap;html=1;verticalAlign=top;align=left;fillColor=#39A7FF;strokeColor=none;" parent="1" vertex="1">
          <mxGeometry x="154" y="520" width="226" height="180" as="geometry" />
        </mxCell>
        <mxCell id="g-5z9y8ouBXw4wv0D8xl-7" value="" style="group" parent="1" vertex="1" connectable="0">
          <mxGeometry x="350" y="530" width="370" height="200" as="geometry" />
        </mxCell>
        <mxCell id="g-5z9y8ouBXw4wv0D8xl-8" value="" style="rounded=0;whiteSpace=wrap;html=1;" parent="g-5z9y8ouBXw4wv0D8xl-7" vertex="1">
          <mxGeometry x="42.285714285714285" y="-10.526315789473685" width="200.85714285714286" height="178.94736842105266" as="geometry" />
        </mxCell>
        <mxCell id="g-5z9y8ouBXw4wv0D8xl-9" value="" style="endArrow=none;html=1;rounded=0;entryX=1;entryY=1;entryDx=0;entryDy=0;exitX=0;exitY=0;exitDx=0;exitDy=0;" parent="g-5z9y8ouBXw4wv0D8xl-7" source="g-5z9y8ouBXw4wv0D8xl-8" target="g-5z9y8ouBXw4wv0D8xl-8" edge="1">
          <mxGeometry width="50" height="50" relative="1" as="geometry">
            <mxPoint x="108.17275747508305" y="288" as="sourcePoint" />
            <mxPoint x="135.21594684385383" y="250.10526315789477" as="targetPoint" />
          </mxGeometry>
        </mxCell>
        <mxCell id="g-5z9y8ouBXw4wv0D8xl-10" value="" style="endArrow=none;html=1;rounded=0;entryX=1;entryY=0;entryDx=0;entryDy=0;exitX=0;exitY=1;exitDx=0;exitDy=0;" parent="g-5z9y8ouBXw4wv0D8xl-7" source="g-5z9y8ouBXw4wv0D8xl-8" target="g-5z9y8ouBXw4wv0D8xl-8" edge="1">
          <mxGeometry width="50" height="50" relative="1" as="geometry">
            <mxPoint x="37.86046511627907" as="sourcePoint" />
            <mxPoint x="210.93687707641195" y="257.6842105263157" as="targetPoint" />
          </mxGeometry>
        </mxCell>
        <mxCell id="0ws95KaB-2t9atwoKgnw-22" value="&lt;font&gt;&lt;br&gt;&lt;/font&gt;&lt;p&gt;&lt;font&gt;© Copyright 2024 Abbington Farm&lt;span style=&quot;white-space: pre;&quot;&gt;&#x9;&lt;/span&gt;&lt;span style=&quot;white-space: pre;&quot;&gt;&#x9;&lt;/span&gt;Created by Gary Siu&lt;br&gt;&lt;/font&gt;&lt;/p&gt;" style="rounded=0;whiteSpace=wrap;html=1;verticalAlign=middle;align=center;fillColor=#39A7FF;strokeColor=none;fontColor=#FFFFFF;" parent="1" vertex="1">
          <mxGeometry x="100" y="860" width="550" height="40" as="geometry" />
        </mxCell>
        <mxCell id="g-5z9y8ouBXw4wv0D8xl-11" value="#39A7FF" style="rounded=0;whiteSpace=wrap;html=1;fillColor=#39A7FF;strokeColor=none;" parent="1" vertex="1">
          <mxGeometry x="310" y="240" width="60" height="50" as="geometry" />
        </mxCell>
        <mxCell id="7_Bna40PHZVwmUt5-Mxg-1" value="" style="group" vertex="1" connectable="0" parent="1">
          <mxGeometry x="240" y="740" width="26" height="20" as="geometry" />
        </mxCell>
        <mxCell id="7_Bna40PHZVwmUt5-Mxg-2" value="" style="rounded=0;whiteSpace=wrap;html=1;" vertex="1" parent="7_Bna40PHZVwmUt5-Mxg-1">
          <mxGeometry width="26" height="20" as="geometry" />
        </mxCell>
        <mxCell id="7_Bna40PHZVwmUt5-Mxg-3" value="" style="endArrow=none;html=1;rounded=0;entryX=1;entryY=1;entryDx=0;entryDy=0;exitX=0;exitY=0;exitDx=0;exitDy=0;" edge="1" parent="7_Bna40PHZVwmUt5-Mxg-1" source="7_Bna40PHZVwmUt5-Mxg-2" target="7_Bna40PHZVwmUt5-Mxg-2">
          <mxGeometry width="50" height="50" relative="1" as="geometry">
            <mxPoint x="12.093023255813955" y="30.399999999999995" as="sourcePoint" />
            <mxPoint x="15.11627906976744" y="26.399999999999995" as="targetPoint" />
          </mxGeometry>
        </mxCell>
        <mxCell id="7_Bna40PHZVwmUt5-Mxg-4" value="" style="endArrow=none;html=1;rounded=0;entryX=1;entryY=0;entryDx=0;entryDy=0;exitX=0;exitY=1;exitDx=0;exitDy=0;" edge="1" parent="7_Bna40PHZVwmUt5-Mxg-1" source="7_Bna40PHZVwmUt5-Mxg-2" target="7_Bna40PHZVwmUt5-Mxg-2">
          <mxGeometry width="50" height="50" relative="1" as="geometry">
            <mxPoint x="4.232558139534883" as="sourcePoint" />
            <mxPoint x="23.581395348837212" y="27.200000000000003" as="targetPoint" />
          </mxGeometry>
        </mxCell>
        <mxCell id="7_Bna40PHZVwmUt5-Mxg-5" value="" style="group" vertex="1" connectable="0" parent="1">
          <mxGeometry x="320" y="740" width="26" height="20" as="geometry" />
        </mxCell>
        <mxCell id="7_Bna40PHZVwmUt5-Mxg-6" value="" style="rounded=0;whiteSpace=wrap;html=1;" vertex="1" parent="7_Bna40PHZVwmUt5-Mxg-5">
          <mxGeometry width="26" height="20" as="geometry" />
        </mxCell>
        <mxCell id="7_Bna40PHZVwmUt5-Mxg-7" value="" style="endArrow=none;html=1;rounded=0;entryX=1;entryY=1;entryDx=0;entryDy=0;exitX=0;exitY=0;exitDx=0;exitDy=0;" edge="1" parent="7_Bna40PHZVwmUt5-Mxg-5" source="7_Bna40PHZVwmUt5-Mxg-6" target="7_Bna40PHZVwmUt5-Mxg-6">
          <mxGeometry width="50" height="50" relative="1" as="geometry">
            <mxPoint x="12.093023255813955" y="30.399999999999995" as="sourcePoint" />
            <mxPoint x="15.11627906976744" y="26.399999999999995" as="targetPoint" />
          </mxGeometry>
        </mxCell>
        <mxCell id="7_Bna40PHZVwmUt5-Mxg-8" value="" style="endArrow=none;html=1;rounded=0;entryX=1;entryY=0;entryDx=0;entryDy=0;exitX=0;exitY=1;exitDx=0;exitDy=0;" edge="1" parent="7_Bna40PHZVwmUt5-Mxg-5" source="7_Bna40PHZVwmUt5-Mxg-6" target="7_Bna40PHZVwmUt5-Mxg-6">
          <mxGeometry width="50" height="50" relative="1" as="geometry">
            <mxPoint x="4.232558139534883" as="sourcePoint" />
            <mxPoint x="23.581395348837212" y="27.200000000000003" as="targetPoint" />
          </mxGeometry>
        </mxCell>
        <mxCell id="7_Bna40PHZVwmUt5-Mxg-9" value="" style="group" vertex="1" connectable="0" parent="1">
          <mxGeometry x="400" y="740" width="26" height="20" as="geometry" />
        </mxCell>
        <mxCell id="7_Bna40PHZVwmUt5-Mxg-10" value="" style="rounded=0;whiteSpace=wrap;html=1;" vertex="1" parent="7_Bna40PHZVwmUt5-Mxg-9">
          <mxGeometry width="26" height="20" as="geometry" />
        </mxCell>
        <mxCell id="7_Bna40PHZVwmUt5-Mxg-11" value="" style="endArrow=none;html=1;rounded=0;entryX=1;entryY=1;entryDx=0;entryDy=0;exitX=0;exitY=0;exitDx=0;exitDy=0;" edge="1" parent="7_Bna40PHZVwmUt5-Mxg-9" source="7_Bna40PHZVwmUt5-Mxg-10" target="7_Bna40PHZVwmUt5-Mxg-10">
          <mxGeometry width="50" height="50" relative="1" as="geometry">
            <mxPoint x="12.093023255813955" y="30.399999999999995" as="sourcePoint" />
            <mxPoint x="15.11627906976744" y="26.399999999999995" as="targetPoint" />
          </mxGeometry>
        </mxCell>
        <mxCell id="7_Bna40PHZVwmUt5-Mxg-12" value="" style="endArrow=none;html=1;rounded=0;entryX=1;entryY=0;entryDx=0;entryDy=0;exitX=0;exitY=1;exitDx=0;exitDy=0;" edge="1" parent="7_Bna40PHZVwmUt5-Mxg-9" source="7_Bna40PHZVwmUt5-Mxg-10" target="7_Bna40PHZVwmUt5-Mxg-10">
          <mxGeometry width="50" height="50" relative="1" as="geometry">
            <mxPoint x="4.232558139534883" as="sourcePoint" />
            <mxPoint x="23.581395348837212" y="27.200000000000003" as="targetPoint" />
          </mxGeometry>
        </mxCell>
        <mxCell id="7_Bna40PHZVwmUt5-Mxg-13" value="" style="group" vertex="1" connectable="0" parent="1">
          <mxGeometry x="480" y="740" width="26" height="20" as="geometry" />
        </mxCell>
        <mxCell id="7_Bna40PHZVwmUt5-Mxg-14" value="" style="rounded=0;whiteSpace=wrap;html=1;" vertex="1" parent="7_Bna40PHZVwmUt5-Mxg-13">
          <mxGeometry width="26" height="20" as="geometry" />
        </mxCell>
        <mxCell id="7_Bna40PHZVwmUt5-Mxg-15" value="" style="endArrow=none;html=1;rounded=0;entryX=1;entryY=1;entryDx=0;entryDy=0;exitX=0;exitY=0;exitDx=0;exitDy=0;" edge="1" parent="7_Bna40PHZVwmUt5-Mxg-13" source="7_Bna40PHZVwmUt5-Mxg-14" target="7_Bna40PHZVwmUt5-Mxg-14">
          <mxGeometry width="50" height="50" relative="1" as="geometry">
            <mxPoint x="12.093023255813955" y="30.399999999999995" as="sourcePoint" />
            <mxPoint x="15.11627906976744" y="26.399999999999995" as="targetPoint" />
          </mxGeometry>
        </mxCell>
        <mxCell id="7_Bna40PHZVwmUt5-Mxg-16" value="" style="endArrow=none;html=1;rounded=0;entryX=1;entryY=0;entryDx=0;entryDy=0;exitX=0;exitY=1;exitDx=0;exitDy=0;" edge="1" parent="7_Bna40PHZVwmUt5-Mxg-13" source="7_Bna40PHZVwmUt5-Mxg-14" target="7_Bna40PHZVwmUt5-Mxg-14">
          <mxGeometry width="50" height="50" relative="1" as="geometry">
            <mxPoint x="4.232558139534883" as="sourcePoint" />
            <mxPoint x="23.581395348837212" y="27.200000000000003" as="targetPoint" />
          </mxGeometry>
        </mxCell>
      </root>
    </mxGraphModel>
  </diagram>
</mxfile>
